<?xml version="1.0" encoding="UTF-8"?>
<svg xmlns="http://www.w3.org/2000/svg" xmlns:se="https://standardebooks.org/vocab/1.0" height="590" version="1.1" viewBox="0 0 1400 590.00129" se:generated-from="c33d6202d1bfd58cfef980548e18a66be6b53824">
	<path d="M 220.27856,66.843806 238.61828,66.843806 238.61828,128.60001 256.20944,128.60001 256.20944,66.843806 274.54916,66.843806 274.54916,51.404756 220.27856,51.404756 220.27856,66.843806 Z"/>
	<path d="M 285.88414,51.404756 285.88414,128.60001 303.4753,128.60001 303.4753,98.096186 327.05494,128.60001 349.41817,128.60001 322.84429,96.692636 C 332.29486,93.698396 338.65762,85.932086 338.65762,74.329406 338.65762,59.171066 327.8035,51.404756 313.48729,51.404756 L 285.88414,51.404756 Z M 303.4753,85.651376 303.4753,65.440256 305.53384,65.440256 C 312.17731,65.440256 320.13076,65.908106 320.13076,75.545816 320.13076,85.183526 312.17731,85.651376 305.53384,85.651376 L 303.4753,85.651376 Z"/>
	<path d="M 402.11986,51.404756 357.95482,51.404756 357.95482,128.60001 402.11986,128.60001 402.11986,113.16096 375.54598,113.16096 375.54598,97.628336 400.99702,97.628336 400.99702,82.189286 375.54598,82.189286 375.54598,66.843806 402.11986,66.843806 402.11986,51.404756 Z"/>
	<path d="M 456.98682,51.404756 440.70564,51.404756 409.54683,128.60001 428.44797,128.60001 434.15574,113.16096 463.53672,113.16096 469.24449,128.60001 488.14563,128.60001 456.98682,51.404756 Z M 457.54824,97.721906 440.14422,97.721906 448.75266,75.265106 448.9398,75.265106 457.54824,97.721906 Z"/>
	<path d="M 522.68305,50.001206 C 510.23824,50.001206 497.51272,59.171066 497.51272,73.580846 497.51272,81.627866 502.93978,88.832756 512.20321,93.417686 521.37307,98.002616 529.60723,100.52901 529.60723,106.14321 529.60723,113.3481 522.30877,113.72238 518.4724,113.72238 509.86396,113.72238 499.57126,105.02037 499.57126,105.02037 L 490.77568,119.80443 C 490.77568,119.80443 501.72337,130.00356 519.78238,130.00356 534.84715,130.00356 548.88265,123.54723 548.88265,105.11394 548.88265,95.008376 539.43208,87.709916 530.82364,84.060686 522.02806,80.317886 514.7296,77.230076 514.7296,72.925856 514.7296,68.715206 517.91098,66.001676 523.89946,66.001676 531.85291,66.001676 539.52565,71.335166 539.52565,71.335166 L 546.63697,57.299666 C 546.63697,57.299666 536.71855,50.001206 522.68305,50.001206 Z"/>
	<path d="M 621.42852,51.404756 603.83736,51.404756 603.83736,96.037646 C 603.83736,108.95031 599.90742,112.69311 591.29898,112.69311 582.69054,112.69311 578.7606,108.95031 578.7606,96.037646 L 578.7606,51.404756 561.16944,51.404756 561.16944,101.184 C 561.16944,120.27228 571.64928,130.00356 591.29898,130.00356 610.94868,130.00356 621.42852,120.27228 621.42852,101.184 L 621.42852,51.404756 Z"/>
	<path d="M 636.73435,51.404756 636.73435,128.60001 654.32551,128.60001 654.32551,98.096186 677.90515,128.60001 700.26838,128.60001 673.6945,96.692636 C 683.14507,93.698396 689.50783,85.932086 689.50783,74.329406 689.50783,59.171066 678.65371,51.404756 664.3375,51.404756 L 636.73435,51.404756 Z M 654.32551,85.651376 654.32551,65.440256 656.38405,65.440256 C 663.02752,65.440256 670.98097,65.908106 670.98097,75.545816 670.98097,85.183526 663.02752,85.651376 656.38405,85.651376 L 654.32551,85.651376 Z"/>
	<path d="M 752.97007,51.404756 708.80503,51.404756 708.80503,128.60001 752.97007,128.60001 752.97007,113.16096 726.39619,113.16096 726.39619,97.628336 751.84723,97.628336 751.84723,82.189286 726.39619,82.189286 726.39619,66.843806 752.97007,66.843806 752.97007,51.404756 Z"/>
	<path d="M 816.25965,51.404756 798.66849,51.404756 798.66849,128.60001 816.25965,128.60001 816.25965,51.404756 Z"/>
	<path d="M 859.16138,50.001206 C 846.71657,50.001206 833.99105,59.171066 833.99105,73.580846 833.99105,81.627866 839.41811,88.832756 848.68154,93.417686 857.8514,98.002616 866.08556,100.52901 866.08556,106.14321 866.08556,113.3481 858.7871,113.72238 854.95073,113.72238 846.34229,113.72238 836.04959,105.02037 836.04959,105.02037 L 827.25401,119.80443 C 827.25401,119.80443 838.2017,130.00356 856.26071,130.00356 871.32548,130.00356 885.36098,123.54723 885.36098,105.11394 885.36098,95.008376 875.91041,87.709916 867.30197,84.060686 858.50639,80.317886 851.20793,77.230076 851.20793,72.925856 851.20793,68.715206 854.38931,66.001676 860.37779,66.001676 868.33124,66.001676 876.00398,71.335166 876.00398,71.335166 L 883.1153,57.299666 C 883.1153,57.299666 873.19688,50.001206 859.16138,50.001206 Z"/>
	<path d="M 916.17457,51.404756 898.58341,51.404756 898.58341,128.60001 942.74845,128.60001 942.74845,113.16096 916.17457,113.16096 916.17457,51.404756 Z"/>
	<path d="M 997.06713,51.404756 980.78595,51.404756 949.62714,128.60001 968.52828,128.60001 974.23605,113.16096 1003.617,113.16096 1009.3248,128.60001 1028.2259,128.60001 997.06713,51.404756 Z M 997.62855,97.721906 980.22453,97.721906 988.83297,75.265106 989.02011,75.265106 997.62855,97.721906 Z"/>
	<path d="M 1053.7368,80.692166 1053.924,80.692166 1084.6149,128.60001 1102.2061,128.60001 1102.2061,51.404756 1084.6149,51.404756 1084.6149,99.312596 1084.4278,99.312596 1053.7368,51.404756 1036.1457,51.404756 1036.1457,128.60001 1053.7368,128.60001 1053.7368,80.692166 Z"/>
	<path d="M 1118.4505,51.404756 1118.4505,128.60001 1140.8138,128.60001 C 1162.0542,128.60001 1179.7389,112.50597 1179.7389,89.955596 1179.7389,67.498796 1161.9606,51.404756 1140.8138,51.404756 L 1118.4505,51.404756 Z M 1136.0417,112.88025 1136.0417,67.124516 1138.7552,67.124516 C 1151.855,67.124516 1160.7442,77.136506 1160.7442,90.049166 1160.6506,102.96183 1151.7615,112.88025 1138.7552,112.88025 L 1136.0417,112.88025 Z"/>
	<path d="M 155.9008,231.05151 155.9008,288.95001 169.09464,288.95001 169.09464,266.07133 186.78,288.95001 203.55302,288.95001 183.6219,265.01863 C 190.71008,262.77287 195.48232,256.94793 195.48232,248.24561 195.48232,236.87645 187.34144,231.05151 176.6039,231.05151 L 155.9008,231.05151 Z M 169.09464,256.73739 169.09464,241.57851 170.6386,241.57851 C 175.62138,241.57851 181.58668,241.92941 181.58668,249.15795 181.58668,256.38649 175.62138,256.73739 170.6386,256.73739 L 169.09464,256.73739 Z"/>
	<path d="M 208.60895,259.96567 C 208.60895,276.87905 220.67991,290.00271 237.80383,290.00271 254.43649,290.00271 266.92853,276.87905 266.92853,259.96567 266.92853,243.05229 253.87505,229.99881 237.80383,229.99881 221.87297,229.99881 208.60895,243.05229 208.60895,259.96567 Z M 222.85549,259.96567 C 222.85549,251.33353 227.62773,242.70139 237.80383,242.70139 248.05011,242.70139 252.68199,251.33353 252.68199,259.96567 252.68199,268.59781 248.33083,277.22995 237.80383,277.22995 226.99611,277.22995 222.85549,268.59781 222.85549,259.96567 Z"/>
	<path d="M 277.75018,231.05151 277.75018,288.95001 299.71652,288.95001 C 311.7173,288.95001 318.66512,282.35309 318.66512,272.80861 318.66512,263.47467 313.54198,259.47441 306.31344,258.21117 311.22604,255.68469 313.54198,251.12299 313.54198,245.78931 313.54198,234.77105 305.68182,231.05151 295.71626,231.05151 L 277.75018,231.05151 Z M 290.94402,253.71965 290.94402,241.22761 291.99672,241.22761 C 297.75148,241.22761 300.76922,242.98211 300.76922,247.12273 300.76922,251.96515 297.6813,253.71965 291.99672,253.71965 L 290.94402,253.71965 Z M 290.94402,278.77391 290.94402,265.08881 295.08464,265.08881 C 301.33066,265.08881 304.76948,266.98367 304.76948,272.31735 304.76948,276.87905 301.33066,278.77391 295.08464,278.77391 L 290.94402,278.77391 Z"/>
	<path d="M 362.61613,231.05151 329.49117,231.05151 329.49117,288.95001 362.61613,288.95001 362.61613,277.37031 342.68501,277.37031 342.68501,265.72043 361.77397,265.72043 361.77397,254.14073 342.68501,254.14073 342.68501,242.63121 362.61613,242.63121 362.61613,231.05151 Z"/>
	<path d="M 375.20103,231.05151 375.20103,288.95001 388.39487,288.95001 388.39487,266.07133 406.08023,288.95001 422.85325,288.95001 402.92213,265.01863 C 410.01031,262.77287 414.78255,256.94793 414.78255,248.24561 414.78255,236.87645 406.64167,231.05151 395.90413,231.05151 L 375.20103,231.05151 Z M 388.39487,256.73739 388.39487,241.57851 389.93883,241.57851 C 394.92161,241.57851 400.88691,241.92941 400.88691,249.15795 400.88691,256.38649 394.92161,256.73739 389.93883,256.73739 L 388.39487,256.73739 Z"/>
	<path d="M 424.11509,242.63121 437.87037,242.63121 437.87037,288.95001 451.06421,288.95001 451.06421,242.63121 464.81949,242.63121 464.81949,231.05151 424.11509,231.05151 424.11509,242.63121 Z"/>
	<path d="M 511.95457,231.05151 498.76073,231.05151 498.76073,288.95001 531.88569,288.95001 531.88569,277.37031 511.95457,277.37031 511.95457,231.05151 Z"/>
	<path d="M 540.77738,259.96567 C 540.77738,276.87905 552.84834,290.00271 569.97226,290.00271 586.60492,290.00271 599.09696,276.87905 599.09696,259.96567 599.09696,243.05229 586.04348,229.99881 569.97226,229.99881 554.0414,229.99881 540.77738,243.05229 540.77738,259.96567 Z M 555.02392,259.96567 C 555.02392,251.33353 559.79616,242.70139 569.97226,242.70139 580.21854,242.70139 584.85042,251.33353 584.85042,259.96567 584.85042,268.59781 580.49926,277.22995 569.97226,277.22995 559.16454,277.22995 555.02392,268.59781 555.02392,259.96567 Z"/>
	<path d="M 654.41274,231.05151 641.2189,231.05151 641.2189,264.52737 C 641.2189,274.21221 638.27134,277.01941 631.81478,277.01941 625.35822,277.01941 622.41066,274.21221 622.41066,264.52737 L 622.41066,231.05151 609.21682,231.05151 609.21682,268.38727 C 609.21682,282.70399 617.07698,290.00271 631.81478,290.00271 646.55258,290.00271 654.41274,282.70399 654.41274,268.38727 L 654.41274,231.05151 Z"/>
	<path d="M 680.33625,231.05151 667.14241,231.05151 667.14241,288.95001 680.33625,288.95001 680.33625,231.05151 Z"/>
	<path d="M 713.76354,229.99881 C 704.4296,229.99881 694.88512,236.87645 694.88512,247.68417 694.88512,253.71965 698.95556,259.12351 705.90338,262.56233 712.78102,266.00115 718.95686,267.89601 718.95686,272.10681 718.95686,277.51067 713.48282,277.79139 710.60544,277.79139 704.14888,277.79139 696.42908,271.26465 696.42908,271.26465 L 689.83216,282.35309 C 689.83216,282.35309 698.04322,290.00271 711.58796,290.00271 722.88694,290.00271 733.41394,285.16029 733.41394,271.33483 733.41394,263.75539 726.32576,258.28135 719.8692,255.54433 713.27228,252.73713 707.79824,250.42119 707.79824,247.19291 707.79824,244.03481 710.18436,241.99959 714.67588,241.99959 720.64118,241.99959 726.39594,245.99985 726.39594,245.99985 L 731.72962,235.47285 C 731.72962,235.47285 724.29054,229.99881 713.76354,229.99881 Z"/>
	<path d="M 788.73485,229.99881 C 779.40091,229.99881 769.85643,236.87645 769.85643,247.68417 769.85643,253.71965 773.92687,259.12351 780.87469,262.56233 787.75233,266.00115 793.92817,267.89601 793.92817,272.10681 793.92817,277.51067 788.45413,277.79139 785.57675,277.79139 779.12019,277.79139 771.40039,271.26465 771.40039,271.26465 L 764.80347,282.35309 C 764.80347,282.35309 773.01453,290.00271 786.55927,290.00271 797.85825,290.00271 808.38525,285.16029 808.38525,271.33483 808.38525,263.75539 801.29707,258.28135 794.84051,255.54433 788.24359,252.73713 782.76955,250.42119 782.76955,247.19291 782.76955,244.03481 785.15567,241.99959 789.64719,241.99959 795.61249,241.99959 801.36725,245.99985 801.36725,245.99985 L 806.70093,235.47285 C 806.70093,235.47285 799.26185,229.99881 788.73485,229.99881 Z"/>
	<path d="M 812.47623,242.63121 826.23151,242.63121 826.23151,288.95001 839.42536,288.95001 839.42536,242.63121 853.18064,242.63121 853.18064,231.05151 812.47623,231.05151 812.47623,242.63121 Z"/>
	<path d="M 896.05701,231.05151 862.93205,231.05151 862.93205,288.95001 896.05701,288.95001 896.05701,277.37031 876.12589,277.37031 876.12589,265.72043 895.21485,265.72043 895.21485,254.14073 876.12589,254.14073 876.12589,242.63121 896.05701,242.63121 896.05701,231.05151 Z"/>
	<path d="M 926.74833,288.95001 937.13497,288.95001 961.41725,231.05151 946.53909,231.05151 931.94165,269.08907 917.34421,231.05151 902.46605,231.05151 926.74833,288.95001 Z"/>
	<path d="M 1001.7321,231.05151 968.6071,231.05151 968.6071,288.95001 1001.7321,288.95001 1001.7321,277.37031 981.80094,277.37031 981.80094,265.72043 1000.8899,265.72043 1000.8899,254.14073 981.80094,254.14073 981.80094,242.63121 1001.7321,242.63121 1001.7321,231.05151 Z"/>
	<path d="M 1027.5108,253.01785 1027.6512,253.01785 1050.6702,288.95001 1063.8641,288.95001 1063.8641,231.05151 1050.6702,231.05151 1050.6702,266.98367 1050.5299,266.98367 1027.5108,231.05151 1014.317,231.05151 1014.317,288.95001 1027.5108,288.95001 1027.5108,253.01785 Z"/>
	<path d="M 1097.2618,229.99881 C 1087.9278,229.99881 1078.3833,236.87645 1078.3833,247.68417 1078.3833,253.71965 1082.4538,259.12351 1089.4016,262.56233 1096.2792,266.00115 1102.4551,267.89601 1102.4551,272.10681 1102.4551,277.51067 1096.981,277.79139 1094.1037,277.79139 1087.6471,277.79139 1079.9273,271.26465 1079.9273,271.26465 L 1073.3304,282.35309 C 1073.3304,282.35309 1081.5414,290.00271 1095.0862,290.00271 1106.3852,290.00271 1116.9122,285.16029 1116.9122,271.33483 1116.9122,263.75539 1109.824,258.28135 1103.3674,255.54433 1096.7705,252.73713 1091.2965,250.42119 1091.2965,247.19291 1091.2965,244.03481 1093.6826,241.99959 1098.1741,241.99959 1104.1394,241.99959 1109.8942,245.99985 1109.8942,245.99985 L 1115.2278,235.47285 C 1115.2278,235.47285 1107.7888,229.99881 1097.2618,229.99881 Z"/>
	<path d="M 1125.4825,259.96567 C 1125.4825,276.87905 1137.5535,290.00271 1154.6774,290.00271 1171.3101,290.00271 1183.8021,276.87905 1183.8021,259.96567 1183.8021,243.05229 1170.7486,229.99881 1154.6774,229.99881 1138.7466,229.99881 1125.4825,243.05229 1125.4825,259.96567 Z M 1139.7291,259.96567 C 1139.7291,251.33353 1144.5013,242.70139 1154.6774,242.70139 1164.9237,242.70139 1169.5556,251.33353 1169.5556,259.96567 1169.5556,268.59781 1165.2044,277.22995 1154.6774,277.22995 1143.8697,277.22995 1139.7291,268.59781 1139.7291,259.96567 Z"/>
	<path d="M 1207.8177,253.01785 1207.958,253.01785 1230.9771,288.95001 1244.1709,288.95001 1244.1709,231.05151 1230.9771,231.05151 1230.9771,266.98367 1230.8367,266.98367 1207.8177,231.05151 1194.6238,231.05151 1194.6238,288.95001 1207.8177,288.95001 1207.8177,253.01785 Z"/>
	<path d="M 545.44374,539.29999 554.23913,539.29999 550.77712,500.70319 541.42032,500.70319 532.85884,522.97237 524.29737,500.70319 514.94057,500.70319 511.47855,539.29999 520.27395,539.29999 522.09852,516.42261 522.33244,516.42261 530.23894,539.06607 535.47875,539.06607 543.38524,516.42261 543.61916,516.42261 545.44374,539.29999 Z"/>
	<path d="M 571.55795,500.70319 562.76255,500.70319 562.76255,539.29999 571.55795,539.29999 571.55795,500.70319 Z"/>
	<path d="M 590.99519,500.70319 582.1998,500.70319 582.1998,539.29999 604.28185,539.29999 604.28185,531.58063 590.99519,531.58063 590.99519,500.70319 Z"/>
	<path d="M 611.87617,519.9782 C 611.87617,531.25314 619.92302,540.00175 631.33832,540.00175 642.42612,540.00175 650.75368,531.25314 650.75368,519.9782 650.75368,508.70325 642.05185,500.00143 631.33832,500.00143 620.71835,500.00143 611.87617,508.70325 611.87617,519.9782 Z M 621.37332,519.9782 C 621.37332,514.22376 624.55464,508.46933 631.33832,508.46933 638.16878,508.46933 641.25652,514.22376 641.25652,519.9782 641.25652,525.73263 638.35592,531.48706 631.33832,531.48706 624.13358,531.48706 621.37332,525.73263 621.37332,519.9782 Z"/>
	<path d="M 703.1122,539.29999 712.84327,539.29999 723.83751,500.70319 714.10644,500.70319 707.5099,527.18293 707.27598,527.18293 700.25838,500.70319 693.61505,500.70319 686.59745,527.18293 686.36353,527.18293 679.76698,500.70319 669.98913,500.70319 680.98337,539.29999 690.76122,539.29999 696.93671,517.639 703.1122,539.29999 Z"/>
	<path d="M 739.74257,500.70319 730.94718,500.70319 730.94718,539.29999 739.74257,539.29999 739.74257,500.70319 Z"/>
	<path d="M 759.17982,515.34658 759.27339,515.34658 774.61854,539.29999 783.41394,539.29999 783.41394,500.70319 774.61854,500.70319 774.61854,524.6566 774.52498,524.6566 759.17982,500.70319 750.38443,500.70319 750.38443,539.29999 759.17982,539.29999 759.17982,515.34658 Z"/>
	<path d="M 789.31891,508.42255 798.48858,508.42255 798.48858,539.29999 807.28397,539.29999 807.28397,508.42255 816.45363,508.42255 816.45363,500.70319 789.31891,500.70319 789.31891,508.42255 Z"/>
	<path d="M 846.70308,500.70319 824.62104,500.70319 824.62104,539.29999 846.70308,539.29999 846.70308,531.58063 833.41643,531.58063 833.41643,523.81448 846.14168,523.81448 846.14168,516.09512 833.41643,516.09512 833.41643,508.42255 846.70308,508.42255 846.70308,500.70319 Z"/>
	<path d="M 856.75943,500.70319 856.75943,539.29999 865.55482,539.29999 865.55482,524.0484 877.34439,539.29999 888.52577,539.29999 875.23911,523.34664 C 879.9643,521.84956 883.14561,517.96648 883.14561,512.16527 883.14561,504.58626 877.71866,500.70319 870.56071,500.70319 L 856.75943,500.70319 Z M 865.55482,517.82613 865.55482,507.72079 866.58407,507.72079 C 869.90574,507.72079 873.88238,507.95471 873.88238,512.77346 873.88238,517.59221 869.90574,517.82613 866.58407,517.82613 L 865.55482,517.82613 Z"/>
	<path d="M 594.38019,455.34682 C 594.38019,455.7719 594.72025,455.85692 594.9753,455.85692 595.31537,455.85692 595.99549,455.89943 596.88816,455.89943 597.65331,455.89943 597.90835,456.06946 597.90835,456.7921 597.90835,459.21505 595.99549,465.8463 595.99549,469.07691 595.99549,470.90475 596.29305,472.60507 597.56829,472.60507 599.14109,472.60507 601.47903,470.0971 601.47903,470.0971 601.94661,469.587 602.71176,468.14173 602.71176,467.63164 602.71176,467.33408 602.54173,467.16405 602.28668,467.16405 601.69157,467.16405 601.09645,469.37446 599.65118,469.37446 599.2261,469.37446 598.80102,468.82186 598.80102,468.22675 598.80102,467.71665 598.80102,467.80167 600.07626,459.76766 600.41633,457.59975 601.22398,455.94194 601.22398,454.83673 601.22398,454.53917 600.92642,454.36914 600.62887,454.36914 598.20591,454.36914 597.48327,454.75171 595.78295,454.75171 L 595.35787,454.75171 C 594.89029,454.75171 594.38019,454.79422 594.38019,455.34682 Z M 598.88604,446.97275 C 598.88604,447.39783 600.03375,449.22567 600.7989,449.22567 601.18147,449.22567 602.66925,447.82291 602.66925,446.97275 602.66925,446.20761 601.8616,444.71983 601.01144,444.71983 600.24629,444.71983 598.88604,446.59018 598.88604,446.97275 Z"/>
	<path d="M 606.1124,468.5243 C 606.1124,472.52006 607.34513,472.52006 608.19529,472.52006 609.00294,472.52006 610.78828,471.6699 611.89349,470.39466 612.91368,469.20443 614.01889,467.75916 614.01889,467.33408 614.01889,466.909 613.80635,466.65395 613.50879,466.65395 612.40358,466.65395 611.9785,469.67202 609.64056,469.67202 609.08796,469.67202 608.96043,469.45948 608.96043,468.01421 608.96043,466.56894 609.47053,463.89093 610.19317,458.87499 611.55342,449.73577 610.83079,451.30856 612.40358,443.06201 612.53111,442.25436 612.82866,441.70176 612.82866,441.10665 612.82866,440.68157 612.61612,440.42652 611.93599,440.42652 610.83079,440.42652 609.89561,440.8516 606.79253,441.06414 606.23992,441.10665 606.15491,441.44671 606.15491,441.65925 606.15491,442.12684 606.53748,442.25436 607.38764,442.25436 607.89773,442.25436 607.98275,442.21185 608.62037,442.21185 609.25799,442.21185 609.68307,442.55192 609.68307,443.06201 609.68307,443.57211 609.04545,447.39783 608.32281,451.98869 607.89773,454.7092 607.68519,457.72727 607.30262,460.40528 607.21761,461.0854 606.1124,466.10135 606.1124,468.5243 Z"/>
	<path d="M 617.23754,468.5243 C 617.23754,472.52006 618.47027,472.52006 619.32043,472.52006 620.12808,472.52006 621.91342,471.6699 623.01863,470.39466 624.03882,469.20443 625.14403,467.75916 625.14403,467.33408 625.14403,466.909 624.93149,466.65395 624.63393,466.65395 623.52872,466.65395 623.10364,469.67202 620.7657,469.67202 620.2131,469.67202 620.08557,469.45948 620.08557,468.01421 620.08557,466.56894 620.59567,463.89093 621.31831,458.87499 622.67856,449.73577 621.95593,451.30856 623.52872,443.06201 623.65625,442.25436 623.9538,441.70176 623.9538,441.10665 623.9538,440.68157 623.74126,440.42652 623.06113,440.42652 621.95593,440.42652 621.02075,440.8516 617.91767,441.06414 617.36506,441.10665 617.28005,441.44671 617.28005,441.65925 617.28005,442.12684 617.66262,442.25436 618.51278,442.25436 619.02287,442.25436 619.10789,442.21185 619.74551,442.21185 620.38313,442.21185 620.80821,442.55192 620.80821,443.06201 620.80821,443.57211 620.17059,447.39783 619.44795,451.98869 619.02287,454.7092 618.81033,457.72727 618.42776,460.40528 618.34275,461.0854 617.23754,466.10135 617.23754,468.5243 Z"/>
	<path d="M 627.0084,459.68264 C 627.0084,459.9802 627.17843,460.23524 627.43348,460.23524 627.64602,460.23524 627.90107,460.06521 628.0711,459.64013 628.66621,458.27988 629.60139,457.17467 629.98396,457.17467 630.53657,457.17467 630.83412,457.59975 630.83412,458.06734 630.83412,460.66032 628.92126,465.3362 628.92126,469.92707 628.92126,471.1598 629.21882,472.64758 630.36653,472.64758 633.46962,472.64758 636.61521,468.77935 638.52807,466.05884 639.80331,464.2735 640.01585,463.33833 640.2709,463.33833 640.39842,463.33833 640.48344,463.50836 640.48344,463.80592 640.48344,464.18849 639.71829,467.54662 639.71829,470.26713 639.71829,471.58488 640.05836,472.56256 640.99353,472.56256 644.98929,472.56256 647.62478,468.22675 647.62478,467.20656 647.62478,466.82398 647.58227,466.31389 647.02967,466.31389 646.137,466.31389 645.96697,469.45948 643.37398,469.45948 642.99141,469.45948 642.43881,469.37446 642.43881,468.43929 642.43881,466.27138 645.03179,455.98444 645.03179,454.83673 645.03179,454.19911 644.30916,453.90155 643.62903,453.90155 643.20395,453.90155 642.52382,454.02908 642.3963,454.58168 641.41861,458.32238 640.22839,462.23312 637.46537,465.59125 635.46749,467.9717 633.97971,469.96958 632.61946,469.96958 632.3219,469.96958 631.85431,469.5445 631.85431,468.82186 631.85431,465.59125 633.42711,460.83036 633.42711,457.08965 633.42711,456.57956 633.34209,453.98657 631.81181,453.98657 628.96377,453.98657 627.0084,457.8973 627.0084,459.68264 Z"/>
	<path d="M 649.12916,469.88456 C 649.12916,472.13748 652.18974,472.69009 653.84755,472.69009 659.28857,472.69009 660.4788,468.65183 660.4788,467.12154 660.4788,464.2735 658.86349,463.08328 657.54575,461.5955 656.52555,460.49029 654.18761,458.74746 654.18761,457.13216 654.18761,455.85692 654.82523,454.87924 656.44054,454.87924 658.09835,454.87924 658.26838,457.25968 659.79867,457.25968 660.01121,457.25968 661.41397,457.13216 661.41397,455.81441 661.41397,454.1566 659.75616,453.604 657.46073,453.604 654.14511,453.604 651.67964,455.55936 651.67964,458.4074 651.67964,460.95788 653.29495,462.06309 654.99527,463.80592 656.52555,465.3362 657.92832,466.56894 657.92832,468.56681 657.92832,469.07691 657.63076,471.28732 654.52768,471.28732 651.93469,471.28732 652.65733,468.35427 650.48942,468.35427 649.97932,468.35427 649.12916,468.56681 649.12916,469.88456 Z"/>
	<path d="M 663.92128,455.60187 C 663.92128,456.7921 666.42926,455.85692 666.42926,456.74959 666.42926,457.8973 664.64392,464.7836 664.64392,468.69434 664.64392,472.00996 666.21672,472.69009 667.36443,472.69009 669.99993,472.69009 673.61311,469.79954 673.61311,468.69434 673.61311,468.09922 673.27304,468.09922 673.14552,468.09922 672.46539,468.09922 671.48771,469.96958 669.14977,469.96958 668.97974,469.96958 667.40694,469.88456 667.40694,467.63164 667.40694,466.95151 668.38462,461.42547 668.7672,458.78997 669.02224,457.04714 668.89472,456.282 670.12745,456.282 671.06263,456.282 672.89047,456.49454 673.5706,456.49454 674.33574,456.49454 674.59079,456.23949 674.59079,455.26181 674.59079,454.75171 674.37825,454.45416 673.48558,454.45416 673.018,454.45416 672.67793,454.49666 671.02012,454.49666 669.61736,454.49666 669.53234,454.45416 669.53234,454.19911 669.53234,453.56149 670.29748,451.56361 670.29748,451.01101 670.29748,450.62844 670.08494,450.50091 669.8724,450.50091 669.19228,450.50091 669.10726,451.05352 667.40694,452.83885 665.53659,454.79422 663.92128,454.75171 663.92128,455.60187 Z"/>
	<path d="M 676.02876,459.59762 C 676.02876,460.19274 676.36882,460.32026 676.53885,460.32026 676.75139,460.32026 676.87892,460.19274 677.00644,460.06521 677.26149,459.76766 677.60155,457.21718 679.34438,457.21718 680.10952,457.21718 680.78965,457.98232 680.78965,460.10772 680.78965,463.29582 678.96181,469.5445 678.96181,471.24482 678.96181,472.26501 679.81197,472.35002 680.23705,472.35002 L 680.44959,472.35002 C 681.97988,472.35002 681.89486,472.35002 682.83004,465.12366 L 683.04258,463.7209 C 683.25512,461.93556 684.31782,456.36702 686.23068,456.36702 687.76096,456.36702 687.59093,458.15235 688.52611,458.15235 689.29125,458.15235 689.37627,456.8346 689.46128,456.53705 689.58881,456.06946 689.92887,455.51686 689.92887,454.96425 689.92887,454.36914 689.46128,453.6465 688.35608,453.6465 685.21048,453.6465 683.08508,458.02483 682.78753,458.02483 682.70251,458.02483 682.66,457.98232 681.5973,455.2193 681.34226,454.53917 680.91718,453.73152 680.02451,453.73152 679.64194,453.73152 676.02876,454.75171 676.02876,459.59762 Z"/>
	<path d="M 689.62002,467.33408 C 689.62002,470.0971 690.13012,472.81761 694.16838,472.81761 698.20664,472.81761 701.7348,467.71665 701.94734,467.71665 702.2449,467.71665 701.86233,472.47755 704.58284,472.47755 705.73055,472.47755 707.64341,470.52218 708.70611,468.99189 709.25872,468.22675 709.47126,467.58913 709.47126,467.16405 709.47126,466.99402 709.42875,466.69646 709.08869,466.69646 708.28103,466.69646 707.38837,469.45948 705.9856,469.45948 705.17795,469.45948 704.54033,468.05672 704.54033,466.95151 704.54033,465.3362 704.96541,463.38084 705.30547,461.51048 705.64554,459.59762 705.90059,457.64226 706.28316,456.06946 706.58071,454.83673 707.13332,453.81654 707.13332,453.13641 707.13332,452.66882 706.92078,452.49879 706.66573,452.49879 705.81557,452.49879 705.30547,454.58168 704.45531,454.58168 703.05255,454.58168 702.15988,454.11409 700.84213,454.11409 699.73693,454.11409 698.88677,454.32663 697.73905,454.87924 695.48613,455.94194 693.53076,457.98232 692.00047,460.40528 690.68272,462.53068 689.62002,464.95363 689.62002,467.33408 Z M 692.59558,467.07903 C 692.59558,466.31389 692.6806,465.54874 692.80812,464.7836 693.19069,462.57318 694.21089,460.66032 695.44362,458.61994 696.71886,456.45203 698.97178,455.17679 700.71461,455.17679 701.60728,455.17679 703.52014,455.47435 703.52014,456.66457 703.52014,456.7921 702.37242,464.61357 701.35223,466.65395 700.96966,467.4191 698.97178,470.47967 695.91121,470.47967 694.12587,470.47967 692.59558,469.20443 692.59558,467.07903 Z"/>
	<path d="M 711.49371,455.60187 C 711.49371,456.7921 714.00168,455.85692 714.00168,456.74959 714.00168,457.8973 712.21635,464.7836 712.21635,468.69434 712.21635,472.00996 713.78914,472.69009 714.93686,472.69009 717.57235,472.69009 721.18553,469.79954 721.18553,468.69434 721.18553,468.09922 720.84547,468.09922 720.71795,468.09922 720.03782,468.09922 719.06013,469.96958 716.72219,469.96958 716.55216,469.96958 714.97937,469.88456 714.97937,467.63164 714.97937,466.95151 715.95705,461.42547 716.33962,458.78997 716.59467,457.04714 716.46715,456.282 717.69988,456.282 718.63505,456.282 720.4629,456.49454 721.14303,456.49454 721.90817,456.49454 722.16322,456.23949 722.16322,455.26181 722.16322,454.75171 721.95068,454.45416 721.05801,454.45416 720.59042,454.45416 720.25036,454.49666 718.59255,454.49666 717.18978,454.49666 717.10477,454.45416 717.10477,454.19911 717.10477,453.56149 717.86991,451.56361 717.86991,451.01101 717.86991,450.62844 717.65737,450.50091 717.44483,450.50091 716.7647,450.50091 716.67969,451.05352 714.97937,452.83885 713.10901,454.79422 711.49371,454.75171 711.49371,455.60187 Z"/>
	<path d="M 723.74266,465.93132 C 723.74266,469.71453 725.0604,472.69009 730.45892,472.69009 734.15712,472.69009 737.85531,469.71453 737.85531,468.73684 737.85531,468.4818 737.68528,468.31176 737.34522,468.31176 736.87763,468.31176 735.17731,470.13961 732.75435,470.13961 728.54606,470.13961 726.6332,468.01421 726.6332,464.82611 726.6332,463.7209 726.76072,463.08328 727.35584,463.08328 731.35159,463.04077 733.64702,462.1056 734.02959,461.93556 734.83724,461.5955 738.15287,459.85267 738.15287,456.7921 738.15287,454.92174 736.45255,453.6465 734.45467,453.6465 732.07422,453.6465 730.11886,454.41165 728.54606,455.89943 725.61301,458.61994 723.74266,462.27563 723.74266,465.93132 Z M 727.22831,461.51048 C 727.22831,460.95788 728.206,458.23737 729.48124,456.91962 730.58644,455.7719 731.90419,454.92174 732.96689,454.92174 733.68953,454.92174 735.21982,455.30432 735.21982,456.91962 735.21982,459.59762 731.73416,462.36064 727.61088,462.36064 727.31333,462.36064 727.22831,461.80804 727.22831,461.51048 Z"/>
	<path d="M 740.20787,466.86649 C 740.20787,470.05459 741.69565,472.52006 745.30883,472.52006 749.51712,472.52006 751.68503,467.75916 752.0676,467.75916 752.66271,467.75916 751.68503,472.52006 754.66059,472.52006 757.42361,472.52006 760.10161,468.22675 760.10161,467.33408 760.10161,467.16405 759.97409,466.95151 759.63402,466.95151 758.95389,466.95151 757.97621,469.587 756.10586,469.587 755.12817,469.587 755.00065,468.69434 755.00065,467.75916 755.00065,466.48392 755.42573,463.80592 755.89332,460.57531 758.27377,443.18954 758.69885,441.82928 758.69885,440.72407 758.69885,440.3415 758.40129,440.00144 758.01872,440.00144 756.871,440.00144 757.12605,440.08645 754.7456,440.68157 753.55538,440.97912 752.0676,440.80909 752.0676,441.53173 752.0676,441.82928 752.32265,441.99931 752.74773,441.99931 752.79023,441.99931 753.76792,441.95681 754.23551,441.95681 754.87313,441.95681 755.46824,442.38189 755.46824,443.01951 755.46824,443.31706 754.06547,454.49666 753.93795,454.49666 752.74773,454.49666 751.89757,453.94406 750.79236,453.94406 745.73391,453.94406 740.20787,460.27775 740.20787,466.86649 Z M 743.18343,465.67627 C 743.18343,461.21293 746.66908,454.83673 750.57982,454.83673 751.72753,454.83673 753.42785,455.38933 753.42785,456.53705 753.42785,458.23737 752.79023,465.71878 751.08991,467.84418 749.98471,469.24694 748.32689,470.05459 746.79661,470.05459 744.20362,470.05459 743.18343,468.14173 743.18343,465.67627 Z"/>
	<path d="M 771.41007,469.16192 C 771.41007,471.62739 774.08807,472.7326 776.59605,472.7326 783.18479,472.7326 788.20073,465.12366 788.20073,459.34258 788.20073,456.57956 786.71295,453.94406 783.52485,453.94406 778.63643,453.94406 776.63855,457.8973 776.04344,457.8973 775.95843,457.8973 775.8309,457.55724 775.8309,457.25968 775.8309,454.19911 778.55141,441.53173 778.55141,440.76658 778.55141,440.29899 778.21135,440.00144 777.74376,440.00144 777.48871,440.00144 776.72357,440.25649 775.06576,440.46903 773.11039,440.72407 771.92017,440.68157 771.92017,441.53173 771.92017,442.12684 772.26023,442.12684 772.72782,442.12684 773.36544,442.12684 773.83303,442.04182 774.47065,442.04182 775.32081,442.04182 775.53335,442.33938 775.53335,442.55192 775.53335,443.57211 775.2783,445.05989 774.89573,446.88773 774.25811,450.03332 773.74801,454.1566 772.98287,458.57743 772.38775,462.02058 771.41007,466.44141 771.41007,469.16192 Z M 774.2156,468.65183 C 774.2156,468.22675 774.68319,463.67839 775.91592,460.32026 777.27617,456.62206 780.03919,456.19698 781.05939,456.19698 783.39733,456.19698 785.22517,458.15235 785.22517,460.5328 785.22517,465.42122 781.31443,471.54237 777.48871,471.54237 774.85322,471.54237 774.2156,470.0971 774.2156,468.65183 Z"/>
	<path d="M 789.84591,477.49349 C 789.84591,479.44886 791.54623,480.00146 793.37408,480.00146 797.36983,480.00146 800.09034,475.15555 802.08821,470.0971 804.59619,463.76341 805.61638,457.8973 805.61638,455.98444 805.61638,454.6667 804.89374,453.73152 803.95857,453.73152 802.93837,453.73152 802.51329,454.53917 802.51329,455.30432 802.51329,456.45203 803.57599,457.30219 803.57599,458.53492 803.57599,461.38296 802.64082,465.93132 802.04571,465.93132 801.57812,465.93132 797.53986,453.85904 793.41658,453.85904 790.8236,453.85904 789.97344,457.55724 789.97344,459.34258 789.97344,460.06521 790.14347,460.27775 790.39852,460.27775 791.67376,460.27775 790.78109,457.08965 793.24655,457.08965 795.49948,457.08965 800.17535,468.05672 800.17535,470.43716 800.17535,472.05247 797.36983,477.49349 794.90436,477.49349 792.949,477.49349 792.90649,476.09073 791.20617,476.09073 790.48353,476.09073 789.84591,476.77086 789.84591,477.49349 Z"/>
</svg>
